<svg xmlns="http://www.w3.org/2000/svg" viewBox="0 0 43 36"><title>telephone</title><path d="M31.7,22.28,29.26,10.6a.93.93,0,0,0-.91-.74h-1a.93.93,0,0,0-.93.94V12a.94.94,0,0,1-.93.94h-8a.94.94,0,0,1-.93-.94V10.8a.93.93,0,0,0-.93-.94h-1a.93.93,0,0,0-.91.74L11.3,22.28a1,1,0,0,1-.17.38L6.89,28.32a1.69,1.69,0,0,0-.35,1V33.5A1.49,1.49,0,0,0,8,35H35a1.49,1.49,0,0,0,1.47-1.5V29.35a1.69,1.69,0,0,0-.35-1l-4.24-5.66A1,1,0,0,1,31.7,22.28Z" style="fill:none;stroke:#363531;stroke-linecap:round;stroke-linejoin:round;stroke-width:2px"/><ellipse cx="21.5" cy="22.81" rx="6.22" ry="6.34" style="fill:none;stroke:#363531;stroke-linecap:round;stroke-linejoin:round;stroke-width:2px"/><path d="M42,9.92a4,4,0,0,0-.23-1.26A5.93,5.93,0,0,0,39.6,5.72C35.17,2.4,26.75,1,21.5,1S7.83,2.4,3.4,5.72A5.93,5.93,0,0,0,1.23,8.66,4,4,0,0,0,1,9.92v1.52a4,4,0,0,0,3.87,4.08H6a3.91,3.91,0,0,0,2.64-1A4,4,0,0,0,10,11.57V10.05a4,4,0,0,0-.28-1.6l-.11-.26a.75.75,0,0,1,0-.55A.71.71,0,0,1,10,7.27l.27-.1c2.26-.83,8.9-1.43,11.26-1.41s9,.58,11.26,1.41l.27.1a.71.71,0,0,1,.39.37.75.75,0,0,1,0,.55l-.11.26a4,4,0,0,0-.28,1.6v1.52a4,4,0,0,0,1.32,2.95,3.91,3.91,0,0,0,2.64,1h1.14A4,4,0,0,0,42,11.44Z" style="fill:none;stroke:#363531;stroke-linecap:round;stroke-linejoin:round;stroke-width:2px"/></svg>