<svg xmlns="http://www.w3.org/2000/svg" viewBox="0 0 24.06 24.06"><title>instagram</title><path d="M17.53,0h-11A6.5,6.5,0,0,0,0,6.53v11A6.5,6.5,0,0,0,6.53,24h11a6.5,6.5,0,0,0,6.5-6.5v-11A6.5,6.5,0,0,0,17.53,0Zm5.09,17.5a5.09,5.09,0,0,1-5.09,5.09h-11a5.09,5.09,0,0,1-5.09-5.09v-11A5.09,5.09,0,0,1,6.53,1.44h11a5.09,5.09,0,0,1,5.09,5.09Z" style="fill:#363531;stroke:#363531;stroke-miterlimit:10;stroke-width:0.05859374912688509px"/><path d="M12,5.47A6.56,6.56,0,1,0,18.59,12h0A6.56,6.56,0,0,0,12,5.47Zm0,11.72A5.16,5.16,0,1,1,17.19,12h0A5.17,5.17,0,0,1,12,17.19Z" style="fill:#363531;stroke:#363531;stroke-miterlimit:10;stroke-width:0.05859374912688509px"/><circle cx="18.73" cy="5.09" r="1.03" style="fill:none;stroke:#363531;stroke-miterlimit:10;stroke-width:0.7617187386495062px"/></svg>