<svg xmlns="http://www.w3.org/2000/svg" viewBox="0 0 56.4 64.4"><title>ski</title><line x1="28.2" y1="1.2" x2="28.2" y2="32.2" style="fill:none;stroke:#f0f2f2;stroke-linecap:round;stroke-linejoin:round;stroke-width:2.4px"/><polyline points="37.59 7.95 28.2 15.15 18.81 7.95" style="fill:none;stroke:#f0f2f2;stroke-linecap:round;stroke-linejoin:round;stroke-width:2.4px"/><line x1="1.2" y1="16.7" x2="28.2" y2="32.2" style="fill:none;stroke:#f0f2f2;stroke-linecap:round;stroke-linejoin:round;stroke-width:2.4px"/><polyline points="11.77 11.98 13.35 23.67 2.38 28.16" style="fill:none;stroke:#f0f2f2;stroke-linecap:round;stroke-linejoin:round;stroke-width:2.4px"/><line x1="1.2" y1="47.7" x2="28.2" y2="32.2" style="fill:none;stroke:#f0f2f2;stroke-linecap:round;stroke-linejoin:round;stroke-width:2.4px"/><polyline points="2.38 36.24 13.35 40.73 11.77 52.41" style="fill:none;stroke:#f0f2f2;stroke-linecap:round;stroke-linejoin:round;stroke-width:2.4px"/><line x1="28.2" y1="63.2" x2="28.2" y2="32.2" style="fill:none;stroke:#f0f2f2;stroke-linecap:round;stroke-linejoin:round;stroke-width:2.4px"/><polyline points="18.81 56.45 28.2 49.25 37.59 56.45" style="fill:none;stroke:#f0f2f2;stroke-linecap:round;stroke-linejoin:round;stroke-width:2.4px"/><line x1="55.2" y1="47.7" x2="28.2" y2="32.2" style="fill:none;stroke:#f0f2f2;stroke-linecap:round;stroke-linejoin:round;stroke-width:2.4px"/><polyline points="44.63 52.41 43.05 40.73 54.02 36.24" style="fill:none;stroke:#f0f2f2;stroke-linecap:round;stroke-linejoin:round;stroke-width:2.4px"/><line x1="55.2" y1="16.7" x2="28.2" y2="32.2" style="fill:none;stroke:#f0f2f2;stroke-linecap:round;stroke-linejoin:round;stroke-width:2.4px"/><polyline points="54.02 28.16 43.05 23.67 44.63 11.98" style="fill:none;stroke:#f0f2f2;stroke-linecap:round;stroke-linejoin:round;stroke-width:2.4px"/></svg>