<svg xmlns="http://www.w3.org/2000/svg" viewBox="0 0 71.58 64.58"><title>avalanche</title><path d="M43.47,24.68a8.95,8.95,0,0,0-12.86-7A10.94,10.94,0,0,0,11.9,28.91" style="fill:none;stroke:#f0f2f2;stroke-linecap:round;stroke-linejoin:round;stroke-width:2.5755814750902464px"/><path d="M18.33,50.53a11.25,11.25,0,1,1-3-22.08,11.33,11.33,0,0,1,6.72,2.19" style="fill:none;stroke:#f0f2f2;stroke-linecap:round;stroke-linejoin:round;stroke-width:2.5755814750902464px"/><path d="M24.2,37.05a5.22,5.22,0,1,1,6.21-8.34" style="fill:none;stroke:#f0f2f2;stroke-linecap:round;stroke-linejoin:round;stroke-width:2.5755814750902464px"/><line x1="1.29" y1="63.29" x2="70.29" y2="11.77" style="fill:none;stroke:#f0f2f2;stroke-linecap:round;stroke-linejoin:round;stroke-width:2.5755814750902464px"/><line x1="39.99" y1="18.57" x2="63.14" y2="1.29" style="fill:none;stroke:#f0f2f2;stroke-linecap:round;stroke-linejoin:round;stroke-width:2.5755814750902464px"/><line x1="43.84" y1="39.1" x2="43.84" y2="62.78" style="fill:none;stroke:#f0f2f2;stroke-linecap:round;stroke-linejoin:round;stroke-width:2.5755814750902464px"/><polyline points="48.92 46.03 43.84 39.1 38.75 46.03" style="fill:none;stroke:#f0f2f2;stroke-linecap:round;stroke-linejoin:round;stroke-width:2.5755814750902464px"/><polyline points="48.92 52.97 43.84 46.03 38.75 52.97" style="fill:none;stroke:#f0f2f2;stroke-linecap:round;stroke-linejoin:round;stroke-width:2.5755814750902464px"/><polyline points="48.92 59.9 43.84 52.97 38.75 59.9" style="fill:none;stroke:#f0f2f2;stroke-linecap:round;stroke-linejoin:round;stroke-width:2.5755814750902464px"/><line x1="59.56" y1="29.1" x2="59.56" y2="49.34" style="fill:none;stroke:#f0f2f2;stroke-linecap:round;stroke-linejoin:round;stroke-width:2.5755814750902464px"/><polyline points="63.91 35.03 59.56 29.1 55.21 35.03" style="fill:none;stroke:#f0f2f2;stroke-linecap:round;stroke-linejoin:round;stroke-width:2.5755814750902464px"/><polyline points="63.91 40.96 59.56 35.03 55.21 40.96" style="fill:none;stroke:#f0f2f2;stroke-linecap:round;stroke-linejoin:round;stroke-width:2.5755814750902464px"/><polyline points="63.91 46.88 59.56 40.96 55.21 46.88" style="fill:none;stroke:#f0f2f2;stroke-linecap:round;stroke-linejoin:round;stroke-width:2.5755814750902464px"/></svg>