<svg xmlns="http://www.w3.org/2000/svg" viewBox="0 0 74.34 60.34"><title>surf</title><path d="M1.17,47.11l5.48-4.37a4.48,4.48,0,0,1,5.26-.28l4.67,3a4.47,4.47,0,0,0,5.09-.16l3.69-2.69a4.49,4.49,0,0,1,5.23-.06l4.05,2.82a4.51,4.51,0,0,0,5.09,0l4.32-2.9a4.49,4.49,0,0,1,5.25.16l3.4,2.58a4.47,4.47,0,0,0,5.1.24l4.93-3.06a4.48,4.48,0,0,1,5.28.39l5.16,4.3" style="fill:none;stroke:#f0f2f2;stroke-linecap:round;stroke-linejoin:round;stroke-width:2.344637463770671px"/><path d="M66.44,55a3.14,3.14,0,0,0-3.29-.07,2.29,2.29,0,0,0-.29.18L58.43,58.3a4.49,4.49,0,0,1-5.24.06l-4-2.81a4.49,4.49,0,0,0-5.09,0l-4.33,2.9a4.51,4.51,0,0,1-2.63.77h.14a4.51,4.51,0,0,1-2.63-.77l-4.32-2.9a4.49,4.49,0,0,0-5.09,0l-4.05,2.81a4.49,4.49,0,0,1-5.24-.06l-4.43-3.23a1.75,1.75,0,0,0-.29-.18A3.13,3.13,0,0,0,7.91,55" style="fill:none;stroke:#f0f2f2;stroke-linecap:round;stroke-linejoin:round;stroke-width:2.344637463770671px"/><path d="M44.8,42.1c-5.1-3.73-9.49-10.2-10.49-15.74-1.81-10,3.9-17.07,10.47-17.68,5.48-.5,10.86,3.78,10.86,9.62,0,4.8-3.32,8.17-7.54,8.17a5.92,5.92,0,0,1-5.84-5.39c-.09-2.42,1.16-4.86,3.25-4.82a2.91,2.91,0,0,1,3.19,3.22" style="fill:none;stroke:#f0f2f2;stroke-linecap:round;stroke-linejoin:round;stroke-width:2.344637463770671px"/><path d="M54.72,22.51a12.42,12.42,0,0,0,1.82-6.61C56.54,7,47.3.47,37.89,1.23c-7.72.63-13.14,4.66-17.43,13.59-2.35,4.91-3.35,13.78-7,19.37a45.81,45.81,0,0,1-5.62,7.73" style="fill:none;stroke:#f0f2f2;stroke-linecap:round;stroke-linejoin:round;stroke-width:2.344637463770671px"/></svg>