<svg xmlns="http://www.w3.org/2000/svg" viewBox="0 0 69.15 64.15"><title>paraglide</title><path d="M24.33,47.57,5.58,30.33l-3-4.27A8,8,0,0,1,4.39,15l.78-.56a7.79,7.79,0,0,1,5.31-1.45" style="fill:none;stroke:#f0f2f2;stroke-linecap:round;stroke-linejoin:round;stroke-width:2.1547365653183115px"/><path d="M44.82,47.57,63.58,30.33l3-4.27A8,8,0,0,0,64.77,15L64,14.39a7.78,7.78,0,0,0-5.31-1.45" style="fill:none;stroke:#f0f2f2;stroke-linecap:round;stroke-linejoin:round;stroke-width:2.1547365653183115px"/><path d="M25.44,6.28a9.75,9.75,0,0,0-6.8-.66l-1.14.3a9.55,9.55,0,0,0-7,11.52l1.54,6L24.33,47.57V10.81A9.69,9.69,0,0,1,34,1.08h1.18a9.69,9.69,0,0,1,9.65,9.73V47.57h0L57.11,23.42l1.55-6a9.56,9.56,0,0,0-7-11.52l-1.14-.3a9.74,9.74,0,0,0-6.8.66" style="fill:none;stroke:#f0f2f2;stroke-linecap:round;stroke-linejoin:round;stroke-width:2.1547365653183115px"/><path d="M63.58,30.33a8.84,8.84,0,0,0-6.47-6.9,12.76,12.76,0,0,0-12.29-6.2A14.72,14.72,0,0,0,35.36,14H33.8a14.75,14.75,0,0,0-9.47,3.21,12.74,12.74,0,0,0-12.28,6.2,8.84,8.84,0,0,0-6.47,6.9" style="fill:none;stroke:#f0f2f2;stroke-linecap:round;stroke-linejoin:round;stroke-width:2.1547365653183115px"/><ellipse cx="34.57" cy="47.17" rx="3.23" ry="2.83" style="fill:none;stroke:#f0f2f2;stroke-linecap:round;stroke-linejoin:round;stroke-width:2.1547365653183115px"/><rect x="31.34" y="54.18" width="6.46" height="8.9" style="fill:none;stroke:#f0f2f2;stroke-linecap:round;stroke-linejoin:round;stroke-width:2.1547365653183115px"/><polyline points="36.88 54.18 41.34 54.18 47.53 50.21" style="fill:none;stroke:#f0f2f2;stroke-linecap:round;stroke-linejoin:round;stroke-width:2.1547365653183115px"/><polyline points="32.26 54.18 27.81 54.18 21.62 50.21" style="fill:none;stroke:#f0f2f2;stroke-linecap:round;stroke-linejoin:round;stroke-width:2.1547365653183115px"/></svg>