<svg xmlns="http://www.w3.org/2000/svg" viewBox="0 0 78.01 56.01"><title>wilderness</title><polygon points="44.48 55 37.95 37.39 42.53 38.4 35.27 22.2 39.14 23.2 30.23 1 21.78 23.2 25.18 22.2 17.92 38.4 22.5 37.39 15.98 55 44.48 55" style="fill:none;stroke:#f0f2f2;stroke-linecap:round;stroke-linejoin:round;stroke-width:2.007911353363855px"/><polygon points="77 55 72.27 42.22 75.59 42.95 70.32 31.19 73.13 31.92 66.66 15.8 60.52 31.92 63 31.19 57.73 42.95 61.05 42.22 56.31 55 77 55" style="fill:none;stroke:#f0f2f2;stroke-linecap:round;stroke-linejoin:round;stroke-width:2.007911353363855px"/><polyline points="17.92 38.4 15.01 31.19 17.41 31.51 11.35 15.8 5.62 31.51 7.69 31.19 2.42 42.95 5.74 42.22 1 55 15.98 55" style="fill:none;stroke:#f0f2f2;stroke-linecap:round;stroke-linejoin:round;stroke-width:2.007911353363855px"/><polyline points="57.73 42.95 54.43 35.11 56.8 35.72 51.35 22.25 46.18 35.72 48.26 35.11 43.82 44.93 46.62 44.32 43.56 52.52 44.48 55 56.31 55" style="fill:none;stroke:#f0f2f2;stroke-linecap:round;stroke-linejoin:round;stroke-width:2.007911353363855px"/></svg>