<svg xmlns="http://www.w3.org/2000/svg" viewBox="0 0 68.46 66.46"><title>desert</title><line x1="13.78" y1="1.23" x2="18.31" y2="1.23" style="fill:none;stroke:#f0f2f2;stroke-linecap:round;stroke-linejoin:round;stroke-width:2.458752017815434px"/><line x1="19.52" y1="14.99" x2="22.72" y2="11.81" style="fill:none;stroke:#f0f2f2;stroke-linecap:round;stroke-linejoin:round;stroke-width:2.458752017815434px"/><line x1="33.38" y1="20.7" x2="33.38" y2="16.2" style="fill:none;stroke:#f0f2f2;stroke-linecap:round;stroke-linejoin:round;stroke-width:2.458752017815434px"/><line x1="47.23" y1="14.99" x2="44.03" y2="11.81" style="fill:none;stroke:#f0f2f2;stroke-linecap:round;stroke-linejoin:round;stroke-width:2.458752017815434px"/><line x1="52.97" y1="1.23" x2="48.44" y2="1.23" style="fill:none;stroke:#f0f2f2;stroke-linecap:round;stroke-linejoin:round;stroke-width:2.458752017815434px"/><path d="M22.69,1.23a10.69,10.69,0,0,0,21.37,0" style="fill:none;stroke:#f0f2f2;stroke-linecap:round;stroke-linejoin:round;stroke-width:2.458752017815434px"/><polyline points="1.23 38.92 25.17 35.71 27.24 38.92 46.97 38.92 51.44 35.71 67.23 38.92" style="fill:none;stroke:#f0f2f2;stroke-linecap:round;stroke-linejoin:round;stroke-width:2.458752017815434px"/><polyline points="1.23 46.38 22.43 42.65 27.24 38.92" style="fill:none;stroke:#f0f2f2;stroke-linecap:round;stroke-linejoin:round;stroke-width:2.458752017815434px"/><polyline points="65.55 45.09 49.63 44.32 34.23 45.87 22.43 42.65" style="fill:none;stroke:#f0f2f2;stroke-linecap:round;stroke-linejoin:round;stroke-width:2.458752017815434px"/><polyline points="46.97 38.92 50.45 44.36 42.9 55.64 33.12 58.73 24.14 54.61 13.29 44.26" style="fill:none;stroke:#f0f2f2;stroke-linecap:round;stroke-linejoin:round;stroke-width:2.458752017815434px"/><line x1="5.89" y1="53.45" x2="19.26" y2="49.96" style="fill:none;stroke:#f0f2f2;stroke-linecap:round;stroke-linejoin:round;stroke-width:2.458752017815434px"/><polyline points="44.84 64.92 33.12 58.73 28.66 65.23 14.23 60.4 24.14 54.61 34.23 45.87" style="fill:none;stroke:#f0f2f2;stroke-linecap:round;stroke-linejoin:round;stroke-width:2.458752017815434px"/><polyline points="42.9 55.64 54.55 58.73 63.35 51.71" style="fill:none;stroke:#f0f2f2;stroke-linecap:round;stroke-linejoin:round;stroke-width:2.458752017815434px"/></svg>