<svg xmlns="http://www.w3.org/2000/svg" viewBox="0 0 64 64"><title>jungle</title><polygon points="63 32 37.54 28.3 42.91 21.09 35.7 26.46 32 1 28.3 26.46 21.09 21.09 21.09 21.09 26.46 28.3 1 32 26.46 35.7 21.09 42.91 21.09 42.91 28.3 37.54 32 63 35.7 37.54 42.91 42.91 37.54 35.7 63 32" style="fill:none;stroke:#f0f2f2;stroke-linecap:round;stroke-linejoin:round;stroke-width:2px"/><circle cx="32" cy="32" r="1.74" style="fill:#f0f2f2;stroke:#f0f2f2;stroke-miterlimit:10;stroke-width:2px"/><path d="M25.9,5.31a27,27,0,0,0-19.72,19" style="fill:none;stroke:#f0f2f2;stroke-linecap:round;stroke-linejoin:round;stroke-width:2px"/><path d="M58.22,24.35A27.05,27.05,0,0,0,40.31,5.8" style="fill:none;stroke:#f0f2f2;stroke-linecap:round;stroke-linejoin:round;stroke-width:2px"/><path d="M6.18,38.76A27,27,0,0,0,25.9,57.81" style="fill:none;stroke:#f0f2f2;stroke-linecap:round;stroke-linejoin:round;stroke-width:2px"/><path d="M40.31,57.32A27.07,27.07,0,0,0,58.22,38.76" style="fill:none;stroke:#f0f2f2;stroke-linecap:round;stroke-linejoin:round;stroke-width:2px"/></svg>