<svg xmlns="http://www.w3.org/2000/svg" viewBox="0 0 320 148"><title>drone</title><path d="M275.66,37.45a.93.93,0,0,1-.26-1.59,6.74,6.74,0,0,0,2.76-5.28V25.43a7.9,7.9,0,0,0-7.9-7.91h-6.49a7.87,7.87,0,0,0-6.48,3.39L175.49,48.3V35.85a5.54,5.54,0,0,0-1.13-3.35,17.7,17.7,0,0,0-28.71,0,5.54,5.54,0,0,0-1.14,3.36V48.3L62.71,20.91a7.87,7.87,0,0,0-6.48-3.39H49.74a7.9,7.9,0,0,0-7.9,7.91v5.15a6.74,6.74,0,0,0,2.76,5.28.93.93,0,0,1-.26,1.59,7.54,7.54,0,0,0-4.62,6.94V48a8.46,8.46,0,0,0,8.45,8.46H57.8A8.45,8.45,0,0,0,66.25,48V44.39A7.58,7.58,0,0,0,65.86,42l78.65,26.34v0a42.45,42.45,0,0,0,4.06,18.32,40.86,40.86,0,0,0,3,5.28,4.16,4.16,0,0,1,.67,1.68l1.15,7.43a2.25,2.25,0,0,0,2.22,1.9h8.82a2.25,2.25,0,0,0,2.22-1.9l1.15-7.43a4.16,4.16,0,0,1,.67-1.68A42.07,42.07,0,0,0,171,87.54a42.73,42.73,0,0,0,4.46-19.17v0L254.14,42a7.58,7.58,0,0,0-.39,2.39V48a8.45,8.45,0,0,0,8.45,8.46h9.63A8.45,8.45,0,0,0,280.28,48V44.39A7.54,7.54,0,0,0,275.66,37.45ZM144.51,66,64,39a7.66,7.66,0,0,0-2.35-1.56.93.93,0,0,1-.26-1.59A6.85,6.85,0,0,0,64.11,31l80.4,26.93ZM258.37,37.45A7.66,7.66,0,0,0,256,39L175.49,66v-8L255.89,31a6.85,6.85,0,0,0,2.74,4.85A.93.93,0,0,1,258.37,37.45Z" style="fill:#f0f2f2"/><path d="M260.33,99.26h3.95a2,2,0,0,0,1.94-1.6l7.31-37.08a1,1,0,0,0-.94-1.15H262.26a1,1,0,0,0-1,.88l-2.94,36.81A2,2,0,0,0,260.33,99.26Z" style="fill:#f0f2f2"/><path d="M272.91,7.85a6,6,0,0,0-.83-3l-2.2-3.72A2.36,2.36,0,0,0,267.83,0H266a2.36,2.36,0,0,0-2,1.2L261.89,5a6,6,0,0,0-.76,2.7l11.79,1.09Z" style="fill:#f0f2f2"/><path d="M46.47,60.58l7.31,37.08a2,2,0,0,0,1.94,1.6h4a2,2,0,0,0,2-2.14L58.7,60.31a1,1,0,0,0-1-.88H47.41A1,1,0,0,0,46.47,60.58Z" style="fill:#f0f2f2"/><path d="M58.11,5,56,1.22A2.36,2.36,0,0,0,54,0H52.17a2.36,2.36,0,0,0-2.05,1.15l-2.2,3.72a6,6,0,0,0-.83,3v.92L58.87,7.68A6,6,0,0,0,58.11,5Z" style="fill:#f0f2f2"/><path d="M319.62,16.42a1.62,1.62,0,0,0-1.1-.58L216.4,6.35a1.63,1.63,0,0,0-.3,3.25l102.12,9.49h.15a1.64,1.64,0,0,0,1.25-2.68Z" style="fill:#f0f2f2"/><path d="M103.6,6.35,1.48,15.84A1.63,1.63,0,0,0,0,17.62,1.64,1.64,0,0,0,1.63,19.1h.15L103.9,9.6a1.63,1.63,0,0,0-.3-3.25Z" style="fill:#f0f2f2"/><ellipse cx="160" cy="135.42" rx="4.77" ry="4.78" style="fill:#f0f2f2"/><path d="M160,122.84a12.54,12.54,0,0,0-10.64,5.9h-4.79a3,3,0,0,0-3,3v7.3a3,3,0,0,0,3,3h4.79A12.57,12.57,0,1,0,160,122.84Zm0,19.76a7.19,7.19,0,1,1,7.18-7.18A7.18,7.18,0,0,1,160,142.6Z" style="fill:#f0f2f2"/><path d="M163.44,120.12a4.43,4.43,0,0,0,4.43-4.44V110.4a4.43,4.43,0,0,0-4.43-4.43h-6.88a4.43,4.43,0,0,0-4.43,4.43v5.28a4.43,4.43,0,0,0,4.43,4.44Z" style="fill:#f0f2f2"/></svg>