<svg xmlns="http://www.w3.org/2000/svg" width="128" height="194" viewBox="0 0 128 194"><title>logo</title><path d="M61.75,91.2l22.6-14.77,33.93,25A64.46,64.46,0,0,0,114.55,94h0L63.74,4,12.22,95.22h0c-.37.66-.72,1.33-1.07,2L51,67.71Z" style="fill:#fff;stroke:#f0f2f2;stroke-miterlimit:10;opacity:0.4000000059604645;isolation:isolate"/><path d="M61.75,91.2l22.6-14.77,33.93,25A64.46,64.46,0,0,0,114.55,94h0L63.74,4,12.22,95.22h0c-.37.66-.72,1.33-1.07,2L51,67.71Z" style="fill:none;stroke:#f0f2f2;stroke-linecap:round;stroke-linejoin:round;stroke-width:8px"/><path d="M84.35,76.43,61.75,91.2,51,67.71,11.17,97.22a65.58,65.58,0,0,0-7.17,30C4,162,30.74,190.27,63.74,190.27s59.73-28.25,59.73-63.09a65.77,65.77,0,0,0-5.19-25.74Z" style="fill:none;stroke:#f0f2f2;stroke-linecap:round;stroke-linejoin:round;stroke-width:8px"/></svg>