<svg xmlns="http://www.w3.org/2000/svg" viewBox="0 0 48 48"><title>instagram</title><path d="M24,4.33c6.41,0,7.17,0,9.7.14a13.29,13.29,0,0,1,4.45.82,7.5,7.5,0,0,1,2.77,1.8,7.32,7.32,0,0,1,1.79,2.76,13.36,13.36,0,0,1,.83,4.46c.11,2.53.14,3.29.14,9.7s0,7.16-.14,9.7a13.22,13.22,0,0,1-.83,4.45,7.92,7.92,0,0,1-4.55,4.56,13.17,13.17,0,0,1-4.46.82c-2.53.12-3.29.14-9.7.14s-7.16,0-9.69-.14a13.11,13.11,0,0,1-4.46-.82,7.46,7.46,0,0,1-2.76-1.8,7.34,7.34,0,0,1-1.8-2.76,13.36,13.36,0,0,1-.83-4.46c-.11-2.53-.14-3.29-.14-9.7s0-7.16.14-9.69a13.3,13.3,0,0,1,.83-4.46,7.34,7.34,0,0,1,1.8-2.76,7.34,7.34,0,0,1,2.76-1.8,13.3,13.3,0,0,1,4.46-.83c2.53-.11,3.29-.14,9.69-.14M24,0c-6.51,0-7.33,0-9.89.14A17.79,17.79,0,0,0,8.28,1.26,11.9,11.9,0,0,0,4,4,11.74,11.74,0,0,0,1.27,8.28,17.51,17.51,0,0,0,.14,14.11C0,16.66,0,17.49,0,24s0,7.34.14,9.9a17.67,17.67,0,0,0,1.12,5.82A11.72,11.72,0,0,0,4,44a11.74,11.74,0,0,0,4.25,2.76,17.47,17.47,0,0,0,5.82,1.12c2.56.12,3.38.14,9.9.14s7.34,0,9.9-.14a17.47,17.47,0,0,0,5.82-1.12,12.26,12.26,0,0,0,7-7,17.73,17.73,0,0,0,1.12-5.82C48,31.35,48,30.52,48,24s0-7.33-.14-9.89a17.79,17.79,0,0,0-1.12-5.83A11.77,11.77,0,0,0,44,4a11.74,11.74,0,0,0-4.25-2.76A17.27,17.27,0,0,0,33.9.15C31.34,0,30.52,0,24,0Z" style="fill:#f0f2f2"/><path d="M24,11.68A12.33,12.33,0,1,0,36.32,24h0A12.31,12.31,0,0,0,24,11.68ZM24,32a8,8,0,1,1,8-8h0A8,8,0,0,1,24,32Z" style="fill:#f0f2f2"/><circle cx="36.81" cy="11.19" r="1.7" style="fill:none;stroke:#f0f2f2;stroke-miterlimit:10;stroke-width:2px"/></svg>