<svg xmlns="http://www.w3.org/2000/svg" viewBox="0 0 859 925"><title>gimbal</title><rect x="393.94" y="152.75" width="71.11" height="49.87" rx="6.91" style="fill:#f0f2f2"/><ellipse cx="429.5" cy="26.6" rx="26.61" ry="26.6" style="fill:#f0f2f2"/><rect x="411.72" y="186.19" width="35.56" height="44.43" style="fill:#f0f2f2"/><path d="M510.67,189h70.55a18.39,18.39,0,0,1,18.39,18.39v49.45a18.39,18.39,0,0,1-18.39,18.39H510.67a4.26,4.26,0,0,1-4.26-4.26V193.28a4.26,4.26,0,0,1,4.26-4.26Z" transform="translate(-28.65 85.93) rotate(-8.66)" style="fill:#f0f2f2"/><path d="M263.65,189h70.54a18.39,18.39,0,0,1,18.39,18.39v49.45a18.39,18.39,0,0,1-18.39,18.39H263.65a4.26,4.26,0,0,1-4.26-4.26V193.28a4.26,4.26,0,0,1,4.26-4.26Z" transform="translate(573.52 507.72) rotate(-171.34)" style="fill:#f0f2f2"/><rect x="386.67" y="860.65" width="85.66" height="41.9" rx="11.68" style="fill:#f0f2f2"/><path d="M350.76,884.41v-5.62a14,14,0,0,1,10.58-13.55v-6.77c0-4.18-2.94-7.56-6.57-7.56H302.23c-3.62,0-6.56,3.38-6.56,7.56a6.08,6.08,0,0,1-3.35,5.43l-97,49a6.11,6.11,0,0,0-3.35,5.44v.53a6.1,6.1,0,0,0,6.1,6.09H355.24a6.1,6.1,0,0,0,6.1-6.09V898A14,14,0,0,1,350.76,884.41Z" style="fill:#f0f2f2"/><path d="M663.65,912.94l-97-49a6.08,6.08,0,0,1-3.35-5.43c0-4.18-2.94-7.56-6.56-7.56H504.23c-3.63,0-6.57,3.38-6.57,7.56v6.77a14,14,0,0,1,10.58,13.55v5.62A14,14,0,0,1,497.66,898v20.95a6.1,6.1,0,0,0,6.1,6.09H660.9a6.1,6.1,0,0,0,6.1-6.09v-.53A6.11,6.11,0,0,0,663.65,912.94Z" style="fill:#f0f2f2"/><path d="M598.39,710.13h-8.08V433.89h8.08a8.48,8.48,0,1,0,0-17h-8.08v-10.5a8.49,8.49,0,1,0-17,0v10.5H510.19a105.33,105.33,0,0,1,11.73,17h51.42V710.13H285.66V433.89h51.42a105.33,105.33,0,0,1,11.73-17H285.66v-10.5a8.49,8.49,0,1,0-17,0v10.5h-8.08a8.48,8.48,0,1,0,0,17h8.08V710.13h-8.08a8.49,8.49,0,1,0,0,17h8.08v10.5a8.49,8.49,0,0,0,17,0V727.1H573.34v10.5a8.49,8.49,0,0,0,17,0V727.1h8.08a8.49,8.49,0,1,0,0-17Z" style="fill:#f0f2f2"/><path d="M316.39,563H351a0,0,0,0,1,0,0v92.89a0,0,0,0,1,0,0H326a9.64,9.64,0,0,1-9.64-9.64V563A0,0,0,0,1,316.39,563Z" style="fill:#f0f2f2"/><path d="M517.62,563h25a0,0,0,0,1,0,0v92.89a0,0,0,0,1,0,0H508a0,0,0,0,1,0,0V572.68A9.64,9.64,0,0,1,517.62,563Z" transform="translate(1050.59 1218.98) rotate(-180)" style="fill:#f0f2f2"/><rect x="381.35" y="690.76" width="96.3" height="11.17" style="fill:#f0f2f2"/><path d="M386,723.24h25.32a0,0,0,0,1,0,0v9.22a6.31,6.31,0,0,1-6.31,6.31h-12.7a6.31,6.31,0,0,1-6.31-6.31v-9.22A0,0,0,0,1,386,723.24Z" style="fill:#f0f2f2"/><path d="M446.64,722.93H473a0,0,0,0,1,0,0v9.84a6.31,6.31,0,0,1-6.31,6.31H452.95a6.31,6.31,0,0,1-6.31-6.31v-9.84A0,0,0,0,1,446.64,722.93Z" style="fill:#f0f2f2"/><path d="M429.5,606.21a120.69,120.69,0,0,1-63.67-18.06v92.11H493.17V588.15A120.69,120.69,0,0,1,429.5,606.21Z" style="fill:#f0f2f2"/><ellipse cx="429.51" cy="484.23" rx="68.27" ry="68.24" style="fill:#f0f2f2"/><path d="M429.5,69.25a42.46,42.46,0,0,1-13.22-2.11v66.5h26.44V67.14A42.46,42.46,0,0,1,429.5,69.25Z" style="fill:#f0f2f2"/><rect x="366.12" y="869.87" width="126.75" height="23.46" rx="10.63" style="fill:#f0f2f2"/><path d="M651.39,516.62H606.7L591.92,523l-60.15-8.64a106.6,106.6,0,1,0-204.51,0l-60.16,8.64-14.77-6.32H207.64c-10.25,0-18.56,8-18.56,17.77v40.39c0,9.82,8.31,17.77,18.56,17.77h64.08l-1.08-26.68h90.41a106.56,106.56,0,0,0,136.92,0h90.42l-1.08,26.68h64.08c10.25,0,18.56-7.95,18.56-17.77V534.39C670,524.58,661.64,516.62,651.39,516.62ZM429.51,567.53a83.3,83.3,0,1,1,83.34-83.3A83.33,83.33,0,0,1,429.51,567.53Z" style="fill:#f0f2f2"/><polygon points="322.43 223.35 322.43 260.5 348.47 260.5 352.73 235 506.27 235 510.53 260.5 536.57 260.5 536.57 223.35 322.43 223.35" style="fill:#f0f2f2"/><path d="M361.22,245.93v24.12c0,5.72,5.17,10.35,11.56,10.35H486.22c6.39,0,11.56-4.63,11.56-10.35V245.93Z" style="fill:#f0f2f2"/><path d="M497.38,285.1c-1.33,3.93-5.81,6.82-11.16,6.82H469.5v95.41a109.64,109.64,0,0,1,28.28,15.09V285.1Z" style="fill:#f0f2f2"/><path d="M361.62,285.1h-.4V402.44a110,110,0,0,1,28.28-15.1V291.92H372.78C367.43,291.92,363,289,361.62,285.1Z" style="fill:#f0f2f2"/><path d="M107.39,467.28H12.21A12.21,12.21,0,0,0,0,479.49v6.29A12.21,12.21,0,0,0,12.21,498h95.18a12.21,12.21,0,0,0,12.21-12.2v-6.29A12.21,12.21,0,0,0,107.39,467.28Z" style="fill:#f0f2f2"/><path d="M846.79,467.28H751.61a12.21,12.21,0,0,0-12.21,12.21v6.29A12.21,12.21,0,0,0,751.61,498h95.18A12.2,12.2,0,0,0,859,485.78v-6.29A12.21,12.21,0,0,0,846.79,467.28Z" style="fill:#f0f2f2"/><path d="M201.92,886.1l37.87-19.16a2.58,2.58,0,0,0-.52-4.81c-10.83-2.82-22.46-5.59-33-12.37L145,787.43,92.1,732.84c-11.28-11.55-14-22.53-13.34-47.45V519.6h-30V708.23A56,56,0,0,0,64.7,747.32L193.06,878.75A55.43,55.43,0,0,0,201.92,886.1Z" style="fill:#f0f2f2"/><path d="M657.1,886.1l-37.88-19.16a2.58,2.58,0,0,1,.52-4.81c10.83-2.82,22.46-5.59,33-12.37L714,787.43l52.91-54.59c11.28-11.55,14-22.53,13.33-47.45V519.6h30V708.23a56,56,0,0,1-15.92,39.09L666,878.75A55.36,55.36,0,0,1,657.1,886.1Z" style="fill:#f0f2f2"/><path d="M780.25,448.36V320.85c.71-24.92-2-35.89-13.33-47.44L648.82,154.35c-11.61-11.22-22.6-14-47.53-13.23H257.72c-24.93-.82-35.92,2-47.52,13.23L92.1,273.41c-11.28,11.55-14,22.52-13.34,47.44V448.36h-30V298A56,56,0,0,1,64.7,258.93L193.06,127.49a55.44,55.44,0,0,1,8.73-7.26l-.25-.26A55.77,55.77,0,0,1,235,109H624A55.77,55.77,0,0,1,657.47,120l-.25.26a55,55,0,0,1,8.73,7.26L794.31,258.93A55.92,55.92,0,0,1,810.23,298V448.36Z" style="fill:#f0f2f2"/></svg>