<svg xmlns="http://www.w3.org/2000/svg" viewBox="0 0 257 185"><title>camera</title><path d="M182.22,144.57H148.6a.87.87,0,0,0-.88.88v2.19a.87.87,0,0,0,.88.88h5.24v2.86H148.6a.88.88,0,0,0-.88.88v2.44a.88.88,0,0,0,.88.89h5.24v2.86H148.6a.87.87,0,0,0-.88.88v2.52a.87.87,0,0,0,.88.88h33.62a.88.88,0,0,0,.88-.88v-2.52a.88.88,0,0,0-.88-.88H177v-2.86h5.24a.89.89,0,0,0,.88-.89v-2.44a.89.89,0,0,0-.88-.88H177v-2.86h5.24a.88.88,0,0,0,.88-.88v-2.19A.88.88,0,0,0,182.22,144.57Z" style="fill:#f0f2f2"/><path d="M193.38,137.42H137.44a1.63,1.63,0,0,0-1.63,1.63v.86a1.63,1.63,0,0,0,1.63,1.63h55.94a1.63,1.63,0,0,0,1.62-1.63v-.86A1.63,1.63,0,0,0,193.38,137.42Z" style="fill:#f0f2f2"/><path d="M48.4,118.84h8.78v3.63a1.33,1.33,0,0,0,1.32,1.33h1.69V81.58H58.5a1.33,1.33,0,0,0-1.32,1.33v3.63H48.4a2.13,2.13,0,0,0-1.91,1.21l-45-12.1A1.21,1.21,0,0,0,0,76.83v51.72a1.21,1.21,0,0,0,1.52,1.18l45-12.1A2.13,2.13,0,0,0,48.4,118.84Z" style="fill:#f0f2f2"/><rect x="221.32" y="83.07" width="2.68" height="47.26" rx="0.93" style="fill:#f0f2f2"/><path d="M228.3,130.33H237a1.77,1.77,0,0,0,1.6-1.84h1.78a1.37,1.37,0,0,0,1.37-1.37V86.83a1.37,1.37,0,0,0-1.37-1.37h-1.77V85A1.8,1.8,0,0,0,237,83.07H228.3A1.8,1.8,0,0,0,226.69,85v43.37A1.8,1.8,0,0,0,228.3,130.33Z" style="fill:#f0f2f2"/><path d="M191.42,94.54a7.48,7.48,0,1,0,7.45,7.48A7.48,7.48,0,0,0,191.42,94.54Z" style="fill:#f0f2f2"/><path d="M180.74,102a10.71,10.71,0,0,1,9.07-10.58V91a.91.91,0,0,0-.9-.9H149.45a.9.9,0,0,0-.89.9v22.09a.89.89,0,0,0,.89.9h39.46a.9.9,0,0,0,.9-.9v-.46A10.72,10.72,0,0,1,180.74,102Z" style="fill:#f0f2f2"/><rect x="118.38" y="70.16" width="22.02" height="9.56" rx="0.9" style="fill:#f0f2f2"/><path d="M255.88,173.9l-38.76-12.07a11.66,11.66,0,0,0,.12-1.68,11.48,11.48,0,0,0-11.45-11.49,11.67,11.67,0,0,0-1.46.1V134.14h5.34a2.59,2.59,0,0,0,2.6-2.6v-6.09h4.31a1.84,1.84,0,0,0,1.84-1.84V106.44a1.84,1.84,0,0,0-1.84-1.84h-4.31V65.1a2.59,2.59,0,0,0-2.6-2.6H155.09V59.39a2.6,2.6,0,0,0-2.59-2.61H130.17V54.73h-.1v-1.9H160.4a1.76,1.76,0,0,0,1.76-1.76V47.52a1.76,1.76,0,0,0-1.76-1.77h-36a4.1,4.1,0,0,0-.83-1.31l-.07-41.52a2.91,2.91,0,1,0-5.82,0l.06,41.51a4.09,4.09,0,0,0-.86,1.37,4,4,0,0,0,7,3.8h2.93v5.12h-6.32v2.05h-1.76a2.6,2.6,0,0,0-2.59,2.61V62.5h-4.11a2.59,2.59,0,0,0-2.6,2.6V81.61h-5.62a2.61,2.61,0,0,0-2.6,2.61v43.45a2.6,2.6,0,0,0,2.6,2.6h5.62v1.27a2.59,2.59,0,0,0,2.6,2.6h7.63v3.28H90.31v-3a1.65,1.65,0,0,0-1.45-1.63,1.56,1.56,0,0,0-1.63,1.55v3H84.91v-3a1.59,1.59,0,0,0-1.27-1.6,1.53,1.53,0,0,0-1.81,1.52v3H79.5v-3a1.54,1.54,0,1,0-3.08,0v3H72.79a7.46,7.46,0,0,0,.09-1.16,7.8,7.8,0,0,0-3.38-6.44V114.74h5.29A3.18,3.18,0,0,0,78,117.83h6.16a3.18,3.18,0,0,0,3.18-3.19v-2h1.9v4.53a.76.76,0,0,0,.77.77h2a.76.76,0,0,0,.77-.77v-4.53h4.87V92.77H92.71v-4.4a.77.77,0,0,0-.77-.77H90a.77.77,0,0,0-.77.77v4.4H87.3v-2a3.18,3.18,0,0,0-2.69-3.14H77.47a3.18,3.18,0,0,0-2.68,3H69.5v-.4a6.12,6.12,0,0,0-6.12-6.13v44.54a7.8,7.8,0,0,0-6.05,7.61,8.92,8.92,0,0,0,.08,1.16H53.78v-3a1.6,1.6,0,0,0-1.26-1.6,1.54,1.54,0,0,0-1.82,1.52v3H48.38v-3a1.59,1.59,0,0,0-1.27-1.6,1.53,1.53,0,0,0-1.81,1.52v3H43v-3a1.54,1.54,0,1,0-3.08,0v3h-1.1a1.86,1.86,0,0,0-1.87,1.49A1.8,1.8,0,0,0,38.69,141H59a7.75,7.75,0,0,0,12.28,0h48.48v3a8.16,8.16,0,0,0-4,8,8,8,0,0,0,7.15,7.1,8.16,8.16,0,0,0,5-15.14v-3h1.2a1.88,1.88,0,0,0,1.88-1.49,1.82,1.82,0,0,0-1.78-2.13h-1.3v-3.28h72.16v18.11a2.21,2.21,0,0,0,2,2.24,2.13,2.13,0,0,0,2.26-2.05,7.86,7.86,0,0,1,9.28,7.7l-.56.42-2.84-.88a1.59,1.59,0,0,0-2,1l-2.47,8a1.59,1.59,0,0,0,1,2l45.68,14.23a1.59,1.59,0,0,0,2-1.05l2.47-8A1.6,1.6,0,0,0,255.88,173.9ZM143.62,78.83A4.14,4.14,0,0,1,139.5,83H119.27a4.14,4.14,0,0,1-4.12-4.13V71.06a4.13,4.13,0,0,1,4.12-4.13H139.5a4.13,4.13,0,0,1,4.12,4.13ZM193,112.6v.46a4.13,4.13,0,0,1-4.12,4.13H149.45a4.13,4.13,0,0,1-4.12-4.13V91a4.14,4.14,0,0,1,4.12-4.13h39.46A4.14,4.14,0,0,1,193,91v.47a10.71,10.71,0,0,1,0,21.16Z" style="fill:#f0f2f2"/></svg>